<?xml version="1.0" standalone="no"?>
<!DOCTYPE svg PUBLIC "-//W3C//DTD SVG 20010904//EN"
 "http://www.w3.org/TR/2001/REC-SVG-20010904/DTD/svg10.dtd">
<svg version="1.0" xmlns="http://www.w3.org/2000/svg"
 width="700.000000pt" height="700.000000pt" viewBox="0 0 700.000000 700.000000"
 preserveAspectRatio="xMidYMid meet">
<metadata>
Created by potrace 1.14, written by Peter Selinger 2001-2017
</metadata>
<g transform="translate(0.000000,700.000000) scale(0.100000,-0.100000)"
fill="#000000" stroke="none">
<path d="M2724 5876 l-357 -358 209 -209 c115 -115 205 -209 200 -209 -5 0 18
-28 52 -62 82 -84 159 -182 240 -304 63 -96 104 -163 107 -174 1 -3 18 -39 39
-80 75 -151 151 -368 182 -525 4 -22 8 -42 9 -45 1 -3 5 -30 10 -60 28 -189
35 -352 21 -540 -8 -117 -18 -176 -61 -380 -22 -100 -103 -313 -171 -450 -57
-114 -160 -279 -221 -355 -13 -16 -38 -48 -56 -70 -17 -22 -85 -94 -152 -160
-230 -229 -484 -393 -780 -503 -141 -53 -305 -100 -327 -94 -55 14 136 -129
298 -224 191 -111 440 -210 626 -248 12 -3 34 -8 48 -11 14 -3 40 -8 59 -11
18 -3 43 -8 55 -10 68 -14 164 -19 346 -19 212 0 311 8 410 31 14 3 39 8 55
11 78 12 301 81 401 123 24 11 46 20 49 20 15 2 230 119 290 157 189 122 370
280 510 447 22 26 48 57 59 69 50 59 190 285 240 387 88 182 163 405 190 565
7 44 15 87 20 111 19 92 25 379 12 516 -14 145 -40 299 -62 361 -7 20 -11 37
-9 37 3 0 -16 60 -41 133 -39 112 -144 345 -186 412 -109 172 -189 280 -285
384 -37 41 -76 86 -85 100 -9 14 -370 379 -802 810 l-785 784 -357 -357z"/>
</g>
</svg>
